<svg width="40" height="40" viewBox="0 0 40 40" fill="none" xmlns="http://www.w3.org/2000/svg">
<rect width="40" height="40" rx="4" fill="#3498DB"/>
<path d="M19.8318 17.4883C20.0737 17.5779 20.311 17.3586 20.2308 17.1252C19.6805 15.5235 17.6878 14.926 15.8354 16.347C14.861 17.0946 14.4948 17.2535 14.4856 17.2575C15.128 17.8641 15.8618 19.8995 17.4634 20.1246C19.2276 20.4267 20.7891 18.7874 19.5116 18.0373C18.6714 17.544 17.6822 17.2574 16.6219 17.2574C17.7335 17.0208 18.8432 17.1223 19.8318 17.4883Z" fill="white"/>
<path d="M27.8206 16.3469C24.623 13.8939 22.5838 17.7623 23.8514 17.3789C24.7516 17.1065 25.7358 17.0472 26.7231 17.2574C25.0504 17.2574 23.5085 17.9813 22.4805 19.1597C22.5649 17.3079 22.6926 16.1487 22.8406 15.2864C23.6951 15.2586 24.8339 14.607 25.4593 13.4667C26.5374 11.6444 26.0375 9.77593 25.8765 8.59692C25.0341 9.37172 21.354 8.46386 19.8951 10.8249C19.2507 11.8679 19.438 13.1371 20.1159 14.0658C20.3305 14.3598 20.8436 14.2188 20.8582 13.8619C20.9219 12.3098 21.7399 11.137 23.2647 10.4875C22.5805 11.3248 22.1312 12.2622 21.8991 13.2312C21.5384 14.7405 21.1615 15.7306 21.0232 20.5413C21.0091 21.0291 21.4276 21.433 21.9443 21.4269C22.3184 21.4224 22.6388 21.1982 22.7827 20.8721C23.0015 20.376 23.3576 19.8626 23.9371 19.3923C24.4878 19.9672 25.3258 20.273 26.1929 20.1245C27.7876 19.9004 28.5318 17.8605 29.1706 17.2573C29.1612 17.2534 28.795 17.0946 27.8206 16.3469Z" fill="white"/>
<path d="M32.5212 22.341C31.5216 21.7004 30.4336 22.1569 29.934 22.4293L23.6638 26.7635L19.9925 26.7643L19.0747 25.8975H22.4463C23.4604 25.8975 24.596 25.2737 24.596 24.1634C24.596 22.9847 23.4604 22.4293 22.4463 22.4293H21.1828C20.2442 22.4293 19.1474 22.5084 18.374 22.1174C17.6392 21.7643 16.7931 21.5633 15.8899 21.5633C14.3732 21.5633 13.0158 22.1343 12.0856 23.0349L7.14288 27.6304L12.6499 32.8314L14.4855 30.2309H23.1599C24.0851 30.2309 24.9781 29.9104 25.6696 29.3301L32.584 23.5291C32.9684 23.2066 32.9467 22.6137 32.5212 22.341Z" fill="white"/>
</svg>
