<svg width="56" height="56" viewBox="0 0 56 56" fill="none" xmlns="http://www.w3.org/2000/svg">
<g id="Icon">
<path id="Vector" fill-rule="evenodd" clip-rule="evenodd" d="M5.5998 5.6001C4.05341 5.6001 2.7998 6.8537 2.7998 8.4001V30.8001C2.7998 32.3465 4.05341 33.6001 5.5998 33.6001H41.9998C43.5462 33.6001 44.7998 32.3465 44.7998 30.8001V8.4001C44.7998 6.8537 43.5462 5.6001 41.9998 5.6001H5.5998ZM32.1994 33.6002H15.3994C17.2358 33.6002 20.2767 36.009 22.1521 37.667C23.1037 38.5082 24.5432 38.5644 25.5346 37.7706C27.6067 36.1114 30.9494 33.6002 32.1994 33.6002Z" fill="#3498DB"/>
<path id="Vector_2" fill-rule="evenodd" clip-rule="evenodd" d="M13.5104 22.4003L14.1726 20.4599H18.0688L18.7156 22.4003H20.9486L16.9446 11.4355H15.266L11.2774 22.4003H13.5104ZM17.4992 18.658H14.7734L16.1595 14.6694L17.4992 18.658ZM36.3998 12.6003H23.7998V14.0003H36.3998V12.6003ZM36.3998 19.6003H23.7998V21.0003H36.3998V19.6003ZM11.2002 26.6003H36.4002V28.0003H11.2002V26.6003Z" fill="white"/>
<path id="Vector_3" fill-rule="evenodd" clip-rule="evenodd" d="M19.5996 38.3956C20.5331 39.0768 21.4292 39.8275 22.1521 40.4665C23.1036 41.3077 24.5432 41.3639 25.5346 40.5701C27.5992 38.9169 30.9254 36.4178 32.1858 36.3998H44.7998C46.3462 36.3998 47.5998 35.1462 47.5998 33.5998V23.7998H50.9596C52.1967 23.7998 53.1996 24.8027 53.1996 26.0398V44.2925C53.1996 45.5296 52.1967 46.5325 50.9596 46.5325H21.8396C20.6025 46.5325 19.5996 45.5296 19.5996 44.2925V38.3956ZM29.6797 46.5326H43.1197C42.1221 46.5326 39.4587 48.5613 37.8002 49.9084C37.003 50.5559 35.8362 50.5106 35.0715 49.8251C33.5703 48.4793 31.1454 46.5326 29.6797 46.5326Z" fill="#3498DB"/>
</g>
</svg>
