<svg width="48" height="50" viewBox="0 0 48 50" fill="none" xmlns="http://www.w3.org/2000/svg">
<path fill-rule="evenodd" clip-rule="evenodd" d="M38 4.43115H10C6.68629 4.43115 4 7.20876 4 10.6351V39.5869C4 43.0132 6.68629 45.7908 10 45.7908H38C41.3137 45.7908 44 43.0132 44 39.5869V10.6351C44 7.20876 41.3137 4.43115 38 4.43115ZM15.84 36.2368C15.7448 36.4906 15.6021 36.7225 15.42 36.9192C15.2256 37.1019 15.0024 37.2487 14.76 37.3535C14.5196 37.4594 14.2614 37.5156 14 37.5189C13.4705 37.5113 12.9633 37.2971 12.58 36.9192C12.3979 36.7225 12.2552 36.4906 12.16 36.2368C11.946 35.7362 11.946 35.1656 12.16 34.6651C12.2552 34.4112 12.3979 34.1793 12.58 33.9827C13.1551 33.3959 14.0152 33.2245 14.76 33.5484C15.0024 33.6531 15.2256 33.8 15.42 33.9827C15.6021 34.1793 15.7448 34.4112 15.84 34.6651C16.054 35.1656 16.054 35.7362 15.84 36.2368ZM15.88 25.8968C15.9377 25.7796 15.9781 25.6542 16 25.5246C16.0098 25.3869 16.0098 25.2487 16 25.111C15.9926 24.5635 15.7855 24.039 15.42 23.6427C15.2256 23.4601 15.0024 23.3132 14.76 23.2085C14.0152 22.8846 13.1551 23.056 12.58 23.6427C12.3948 23.8368 12.2516 24.0695 12.16 24.3252C12.0575 24.5738 12.0032 24.8408 12 25.111C11.9969 25.6607 12.2056 26.189 12.58 26.5793C12.9633 26.9572 13.4705 27.1714 14 27.179C14.2748 27.1813 14.5472 27.1249 14.8 27.0135C15.0424 26.9088 15.2656 26.7619 15.46 26.5793L15.7 26.2691C15.7757 26.1538 15.8362 26.0286 15.88 25.8968ZM15.42 16.2393C15.2256 16.422 15.0024 16.5689 14.76 16.6736C14.5226 16.7894 14.2624 16.846 14 16.8391C13.4705 16.8314 12.9633 16.6172 12.58 16.2393C12.2056 15.8491 11.9969 15.3208 12 14.7711C12.0032 14.5008 12.0575 14.2339 12.16 13.9852C12.2613 13.7346 12.4033 13.5038 12.58 13.3028C13.1551 12.716 14.0152 12.5447 14.76 12.8685C15.0024 12.9733 15.2256 13.1201 15.42 13.3028C15.5967 13.5038 15.7387 13.7346 15.84 13.9852C15.9425 14.2339 15.9968 14.5008 16 14.7711C15.9926 15.3186 15.7855 15.843 15.42 16.2393ZM22 37.5189H34C35.1046 37.5189 36 36.593 36 35.4509C36 34.3088 35.1046 33.3829 34 33.3829H22C20.8954 33.3829 20 34.3088 20 35.4509C20 36.593 20.8954 37.5189 22 37.5189ZM34 27.179H22C20.8954 27.179 20 26.2531 20 25.111C20 23.9689 20.8954 23.043 22 23.043H34C35.1046 23.043 36 23.9689 36 25.111C36 26.2531 35.1046 27.179 34 27.179ZM22 16.8391H34C35.1046 16.8391 36 15.9132 36 14.7711C36 13.629 35.1046 12.7031 34 12.7031H22C20.8954 12.7031 20 13.629 20 14.7711C20 15.9132 20.8954 16.8391 22 16.8391Z" fill="#3498DB"/>
</svg>
